<svg width="96" height="62" viewBox="0 0 96 62" fill="none" xmlns="http://www.w3.org/2000/svg">
<rect width="41" height="41" rx="8" fill="#DABDA9"/>
<path d="M16.175 14.5C16.175 15.0333 16.1583 15.55 16.125 16.05C16.0917 16.55 16.0583 16.9417 16.025 17.225H16.175C16.5417 16.6583 17.0417 16.1833 17.675 15.8C18.3083 15.4 19.1333 15.2 20.15 15.2C21.7333 15.2 23.0083 15.7917 23.975 16.975C24.9417 18.1583 25.425 19.9 25.425 22.2C25.425 23.75 25.2 25.05 24.75 26.1C24.3167 27.15 23.6917 27.9417 22.875 28.475C22.075 28.9917 21.1417 29.25 20.075 29.25C19.0583 29.25 18.2417 29.0667 17.625 28.7C17.025 28.3333 16.5417 27.9083 16.175 27.425H15.95L15.375 29H13.025V10H16.175V14.5ZM19.25 17.75C18.4833 17.75 17.875 17.9 17.425 18.2C16.9917 18.5 16.675 18.9583 16.475 19.575C16.275 20.1917 16.175 20.975 16.175 21.925V22.2C16.175 23.65 16.3917 24.7583 16.825 25.525C17.275 26.2917 18.1 26.675 19.3 26.675C20.2333 26.675 20.95 26.2917 21.45 25.525C21.95 24.7417 22.2 23.625 22.2 22.175C22.2 20.7083 21.9417 19.6083 21.425 18.875C20.925 18.125 20.2 17.75 19.25 17.75ZM38.7744 22.2C38.7744 23.3333 38.6244 24.3333 38.3244 25.2C38.0244 26.0667 37.5911 26.8083 37.0244 27.425C36.4744 28.025 35.7911 28.4833 34.9744 28.8C34.1744 29.1 33.2827 29.25 32.2994 29.25C31.3661 29.25 30.5077 29.1 29.7244 28.8C28.9411 28.4833 28.2577 28.025 27.6744 27.425C27.1077 26.8083 26.6661 26.0667 26.3494 25.2C26.0327 24.3333 25.8744 23.3333 25.8744 22.2C25.8744 20.7 26.1327 19.4333 26.6494 18.4C27.1661 17.35 27.9077 16.5583 28.8744 16.025C29.8577 15.475 31.0161 15.2 32.3494 15.2C33.6161 15.2 34.7244 15.475 35.6744 16.025C36.6411 16.5583 37.3994 17.35 37.9494 18.4C38.4994 19.4333 38.7744 20.7 38.7744 22.2ZM29.0994 22.2C29.0994 23.15 29.2077 23.9667 29.4244 24.65C29.6577 25.3167 30.0077 25.825 30.4744 26.175C30.9577 26.525 31.5744 26.7 32.3244 26.7C33.0911 26.7 33.7077 26.525 34.1744 26.175C34.6577 25.825 35.0077 25.3167 35.2244 24.65C35.4411 23.9667 35.5494 23.15 35.5494 22.2C35.5494 21.2333 35.4327 20.425 35.1994 19.775C34.9827 19.1083 34.6327 18.6083 34.1494 18.275C33.6827 17.925 33.0744 17.75 32.3244 17.75C31.1911 17.75 30.3661 18.1333 29.8494 18.9C29.3494 19.6667 29.0994 20.7667 29.0994 22.2ZM52.1309 22.2C52.1309 23.3333 51.9809 24.3333 51.6809 25.2C51.3809 26.0667 50.9475 26.8083 50.3809 27.425C49.8309 28.025 49.1475 28.4833 48.3309 28.8C47.5309 29.1 46.6392 29.25 45.6559 29.25C44.7225 29.25 43.8642 29.1 43.0809 28.8C42.2975 28.4833 41.6142 28.025 41.0309 27.425C40.4642 26.8083 40.0225 26.0667 39.7059 25.2C39.3892 24.3333 39.2309 23.3333 39.2309 22.2C39.2309 20.7 39.4892 19.4333 40.0059 18.4C40.5225 17.35 41.2642 16.5583 42.2309 16.025C43.2142 15.475 44.3725 15.2 45.7059 15.2C46.9725 15.2 48.0809 15.475 49.0309 16.025C49.9975 16.5583 50.7559 17.35 51.3059 18.4C51.8559 19.4333 52.1309 20.7 52.1309 22.2ZM42.4559 22.2C42.4559 23.15 42.5642 23.9667 42.7809 24.65C43.0142 25.3167 43.3642 25.825 43.8309 26.175C44.3142 26.525 44.9309 26.7 45.6809 26.7C46.4475 26.7 47.0642 26.525 47.5309 26.175C48.0142 25.825 48.3642 25.3167 48.5809 24.65C48.7975 23.9667 48.9059 23.15 48.9059 22.2C48.9059 21.2333 48.7892 20.425 48.5559 19.775C48.3392 19.1083 47.9892 18.6083 47.5059 18.275C47.0392 17.925 46.4309 17.75 45.6809 17.75C44.5475 17.75 43.7225 18.1333 43.2059 18.9C42.7059 19.6667 42.4559 20.7667 42.4559 22.2ZM62.6123 25.075C62.6123 25.975 62.3956 26.7417 61.9623 27.375C61.529 27.9917 60.8873 28.4583 60.0373 28.775C59.204 29.0917 58.179 29.25 56.9623 29.25C56.0123 29.25 55.1956 29.1833 54.5123 29.05C53.829 28.9167 53.179 28.7083 52.5623 28.425V25.75C53.229 26.0667 53.9706 26.3333 54.7873 26.55C55.604 26.7667 56.3623 26.875 57.0623 26.875C57.929 26.875 58.554 26.7417 58.9373 26.475C59.3206 26.2083 59.5123 25.85 59.5123 25.4C59.5123 25.1333 59.4373 24.8917 59.2873 24.675C59.1373 24.4583 58.8456 24.2333 58.4123 24C57.979 23.75 57.3206 23.4417 56.4373 23.075C55.5706 22.725 54.8456 22.375 54.2623 22.025C53.6956 21.675 53.2623 21.2583 52.9623 20.775C52.679 20.275 52.5373 19.65 52.5373 18.9C52.5373 17.6833 53.0206 16.7667 53.9873 16.15C54.954 15.5167 56.229 15.2 57.8123 15.2C58.6456 15.2 59.429 15.2833 60.1623 15.45C60.9123 15.6 61.6623 15.85 62.4123 16.2L61.4123 18.525C60.9956 18.3417 60.579 18.1833 60.1623 18.05C59.7623 17.9 59.354 17.7833 58.9373 17.7C58.5373 17.6167 58.129 17.575 57.7123 17.575C57.029 17.575 56.5123 17.6833 56.1623 17.9C55.8123 18.1 55.6373 18.3833 55.6373 18.75C55.6373 19.0333 55.7206 19.2833 55.8873 19.5C56.0706 19.7 56.379 19.9083 56.8123 20.125C57.2623 20.325 57.8956 20.5917 58.7123 20.925C59.529 21.2417 60.2206 21.575 60.7873 21.925C61.3706 22.2583 61.8206 22.675 62.1373 23.175C62.454 23.675 62.6123 24.3083 62.6123 25.075ZM68.8932 26.725C69.2932 26.725 69.6765 26.6917 70.0432 26.625C70.4098 26.5417 70.7515 26.45 71.0682 26.35V28.7C70.7348 28.85 70.3015 28.975 69.7682 29.075C69.2348 29.1917 68.6765 29.25 68.0932 29.25C67.3265 29.25 66.6265 29.125 65.9932 28.875C65.3765 28.6083 64.8765 28.1583 64.4932 27.525C64.1265 26.8917 63.9432 26.0083 63.9432 24.875V17.825H62.1182V16.45L64.1182 15.35L65.1182 12.475H67.0932V15.45H70.9432V17.825H67.0932V24.85C67.0932 25.4833 67.2598 25.9583 67.5932 26.275C67.9265 26.575 68.3598 26.725 68.8932 26.725ZM83.8994 22.2C83.8994 23.3333 83.7494 24.3333 83.4494 25.2C83.1494 26.0667 82.7161 26.8083 82.1494 27.425C81.5994 28.025 80.9161 28.4833 80.0994 28.8C79.2994 29.1 78.4077 29.25 77.4244 29.25C76.4911 29.25 75.6327 29.1 74.8494 28.8C74.0661 28.4833 73.3827 28.025 72.7994 27.425C72.2327 26.8083 71.7911 26.0667 71.4744 25.2C71.1577 24.3333 70.9994 23.3333 70.9994 22.2C70.9994 20.7 71.2577 19.4333 71.7744 18.4C72.2911 17.35 73.0327 16.5583 73.9994 16.025C74.9827 15.475 76.1411 15.2 77.4744 15.2C78.7411 15.2 79.8494 15.475 80.7994 16.025C81.7661 16.5583 82.5244 17.35 83.0744 18.4C83.6244 19.4333 83.8994 20.7 83.8994 22.2ZM74.2244 22.2C74.2244 23.15 74.3327 23.9667 74.5494 24.65C74.7827 25.3167 75.1327 25.825 75.5994 26.175C76.0827 26.525 76.6994 26.7 77.4494 26.7C78.2161 26.7 78.8327 26.525 79.2994 26.175C79.7827 25.825 80.1327 25.3167 80.3494 24.65C80.5661 23.9667 80.6744 23.15 80.6744 22.2C80.6744 21.2333 80.5577 20.425 80.3244 19.775C80.1077 19.1083 79.7577 18.6083 79.2744 18.275C78.8077 17.925 78.1994 17.75 77.4494 17.75C76.3161 17.75 75.4911 18.1333 74.9744 18.9C74.4744 19.6667 74.2244 20.7667 74.2244 22.2Z" fill="black"/>
</svg>
